<svg width="26" height="26" viewBox="0 0 26 26" fill="none" xmlns="http://www.w3.org/2000/svg">
<path d="M22 0H4C1.79086 0 0 1.79086 0 4V22C0 24.2091 1.79086 26 4 26H22C24.2091 26 26 24.2091 26 22V4C26 1.79086 24.2091 0 22 0Z" fill="white"/>
<path d="M22 0H4C1.79086 0 0 1.79086 0 4V22C0 24.2091 1.79086 26 4 26H22C24.2091 26 26 24.2091 26 22V4C26 1.79086 24.2091 0 22 0Z" fill="url(#paint0_linear_704_730)"/>
<path fill-rule="evenodd" clip-rule="evenodd" d="M9.93166 5.63514C9.52882 5.71808 9.23976 6.07272 9.23976 6.48401V9.46092V9.96648V16.0331C9.23976 16.0531 9.23992 16.0739 9.24007 16.0953C9.24334 16.5381 9.24871 17.2642 7.93976 17.3331C6.56865 17.4054 5.19754 18.3428 5.19531 19.4971C5.19531 19.4987 5.19647 19.5 5.19806 19.5002C5.19975 19.5005 5.20093 19.5021 5.2008 19.5037C5.19716 19.5502 5.19531 19.597 5.19531 19.6443C5.19531 20.7611 6.23003 21.6665 7.50642 21.6665C7.898 21.6665 8.26682 21.5813 8.59002 21.4309C9.43307 21.1582 10.2509 20.4552 10.2509 18.7054V10.1115C10.2509 9.90587 10.3954 9.72855 10.5968 9.68708L17.5301 8.25963C17.799 8.20428 18.0509 8.40961 18.0509 8.68407V14.2276C18.0509 14.2476 18.051 14.2683 18.0512 14.2897C18.0545 14.7326 18.0598 15.4587 16.7509 15.5276C15.3798 15.5998 14.0086 16.5373 14.0064 17.6915C14.0064 17.6931 14.0076 17.6944 14.0092 17.6947C14.0109 17.695 14.012 17.6966 14.0119 17.6982C14.0083 17.7447 14.0064 17.7915 14.0064 17.8387C14.0064 18.9555 15.0411 19.8609 16.3175 19.8609C16.7091 19.8609 17.0779 19.7757 17.4012 19.6253C18.2441 19.3526 19.062 18.6496 19.062 16.8998V7.94425V7.65537V4.46421C19.062 4.09828 18.7261 3.82451 18.3676 3.89831L9.93166 5.63514Z" fill="white"/>
<defs>
<linearGradient id="paint0_linear_704_730" x1="13" y1="0" x2="13" y2="26" gradientUnits="userSpaceOnUse">
<stop stop-color="#FB5976"/>
<stop offset="1" stop-color="#FA243B"/>
</linearGradient>
</defs>
</svg>