<svg width="28" height="28" viewBox="0 0 28 28" fill="none" xmlns="http://www.w3.org/2000/svg">
<rect width="28" height="28" rx="14" fill="#FF5500"/>
<path d="M23.3346 15.7672C23.3375 14.4786 22.3078 13.4353 21.0447 13.4353C20.7296 13.4353 20.4292 13.5004 20.1521 13.6156C19.9654 11.5231 18.2326 9.87988 16.1177 9.87988C15.5984 9.87988 15.0967 9.97741 14.6504 10.1577C14.4724 10.2227 14.4228 10.2877 14.4228 10.4296V17.8095C14.4228 17.9573 14.5366 18.0637 14.6737 18.0814H21.0418C22.3049 18.0814 23.3346 17.047 23.3346 15.7672Z" fill="white"/>
<path d="M14.2157 10.6749C14.204 10.5862 14.1574 10.5035 14.0844 10.4621C14.0523 10.4385 14.0028 10.4207 13.9619 10.4207C13.8977 10.4207 13.8394 10.4444 13.7986 10.4769C13.7431 10.5271 13.7081 10.601 13.7023 10.6749V10.6986L13.606 15.9209L13.6556 16.8815L13.7052 17.8184C13.714 17.9573 13.8277 18.0725 13.9648 18.0725C14.1019 18.0725 14.2157 17.9573 14.2157 17.8184L14.3295 15.9209L14.2157 10.6749Z" fill="white"/>
<path d="M9.28577 11.934C9.36745 11.934 9.44038 11.999 9.44038 12.0906L9.59498 15.9327L9.44038 17.9366C9.44038 18.0282 9.36745 18.0932 9.28577 18.0932C9.19534 18.0932 9.13116 18.0282 9.12241 17.9366L8.99406 15.9327L9.12241 12.0906C9.13116 11.999 9.19534 11.934 9.28577 11.934Z" fill="white"/>
<path d="M8.67901 12.794C8.67901 12.7113 8.61484 12.6462 8.54191 12.6462C8.46023 12.6462 8.4048 12.7113 8.39605 12.794L8.2502 15.915L8.39605 17.9336C8.4048 18.0164 8.46023 18.0814 8.54191 18.0814C8.61484 18.0814 8.67901 18.0164 8.67901 17.9336L8.84821 15.915L8.67901 12.794Z" fill="white"/>
<path d="M8.08684 15.915L7.91765 13.9939C7.90889 13.9289 7.85347 13.8698 7.78929 13.8698C7.7222 13.8698 7.66677 13.9289 7.66677 13.9939L7.50341 15.915L7.66677 17.9336C7.66677 18.0075 7.72512 18.0637 7.78929 18.0637C7.85347 18.0637 7.90889 18.0075 7.91765 17.9336L8.08684 15.915Z" fill="white"/>
<path d="M4.95093 14.8629C4.94218 14.8215 4.91884 14.789 4.878 14.789C4.83716 14.789 4.81382 14.8215 4.80507 14.8629L4.66797 15.915L4.80507 16.9494C4.81382 16.9908 4.83716 17.0233 4.878 17.0233C4.91884 17.0233 4.94218 16.9908 4.95093 16.9494L5.11429 15.915L4.95093 14.8629Z" fill="white"/>
<path d="M5.56644 14.1417C5.60728 14.1417 5.63937 14.1742 5.64812 14.2156L5.85815 15.915L5.64812 17.5819C5.63937 17.6233 5.60728 17.6558 5.56644 17.6558C5.5256 17.6558 5.49351 17.6233 5.49351 17.573L5.30682 15.915L5.49351 14.2156C5.49351 14.1742 5.5256 14.1417 5.56644 14.1417Z" fill="white"/>
<path d="M6.39491 13.9023C6.39491 13.8462 6.35407 13.8048 6.30448 13.8048C6.25489 13.8048 6.21405 13.8462 6.20821 13.9023L6.03902 15.915L6.20821 17.8597C6.21696 17.91 6.2578 17.9514 6.30448 17.9514C6.35407 17.9514 6.39491 17.91 6.39491 17.8597L6.59619 15.915L6.39491 13.9023Z" fill="white"/>
<path d="M7.0425 13.7398C7.09793 13.7398 7.14752 13.7811 7.15627 13.8462L7.34297 15.915L7.15627 17.9188C7.14752 17.9839 7.09793 18.0252 7.0425 18.0252C6.98708 18.0252 6.93749 17.9839 6.93749 17.9188L6.76829 15.915L6.93749 13.8462C6.93749 13.7811 6.98708 13.7398 7.0425 13.7398Z" fill="white"/>
<path d="M13.3056 10.9143C13.3697 10.9557 13.4106 11.0296 13.4193 11.1123L13.5156 15.9239L13.4252 17.6558L13.4164 17.8538C13.4164 17.9218 13.3931 17.978 13.3435 18.0193C13.3026 18.0607 13.2443 18.0932 13.1801 18.0932C13.1072 18.0932 13.043 18.0578 12.9934 18.0016C12.9613 17.9602 12.9438 17.9129 12.9438 17.8627V17.8538C12.8534 15.9239 12.8534 15.915 12.8534 15.915L12.9351 11.1626L12.9438 11.1123C12.9438 11.0296 12.9847 10.9557 13.0489 10.9143C13.0868 10.8907 13.1305 10.8729 13.1772 10.8729C13.2239 10.8729 13.2647 10.8907 13.3056 10.9143Z" fill="white"/>
<path d="M10.2338 11.7596C10.228 11.662 10.1551 11.5793 10.0559 11.5793C9.96546 11.5793 9.8867 11.662 9.8867 11.7596L9.75835 15.915L9.8867 17.9011C9.89545 17.9986 9.96838 18.0725 10.0559 18.0725C10.1522 18.0725 10.2251 17.9986 10.2338 17.9011L10.3797 15.915L10.2338 11.7596Z" fill="white"/>
<path d="M12.3896 11.6532C12.5121 11.6532 12.5996 11.7507 12.6084 11.8837L12.7221 15.9239L12.6084 17.8627C12.6084 17.9868 12.5121 18.0843 12.3896 18.0843C12.2671 18.0843 12.1708 17.9868 12.1621 17.8627L12.0658 15.9239L12.1621 11.8837C12.1708 11.7507 12.2671 11.6532 12.3896 11.6532Z" fill="white"/>
<path d="M11.0215 11.6207C11.0127 11.5143 10.931 11.4227 10.826 11.4227C10.7297 11.4227 10.6393 11.5143 10.6393 11.6207L10.5255 15.915L10.6393 17.8922C10.6481 17.9986 10.7297 18.0814 10.826 18.0814C10.931 18.0814 11.0127 17.9986 11.0215 17.8922L11.1498 15.915L11.0215 11.6207Z" fill="white"/>
<path d="M11.6049 11.5231C11.7187 11.5231 11.8062 11.6118 11.8062 11.7271L11.9287 15.915L11.8062 17.8775C11.8062 17.9898 11.7157 18.0814 11.6049 18.0814C11.494 18.0814 11.4124 17.9927 11.4036 17.8775L11.2898 15.915L11.4036 11.7271C11.4036 11.6148 11.4911 11.5231 11.6049 11.5231Z" fill="white"/>
</svg>