<svg width="28" height="28" viewBox="0 0 28 28" fill="none" xmlns="http://www.w3.org/2000/svg">
<path d="M14 0C6.26818 0 0 6.26755 0 14C0 21.7325 6.26818 28 14 28C21.7318 28 28 21.7325 28 14C28 6.26755 21.7318 0 14 0ZM20.8303 20.1819C20.6054 20.58 20.1918 20.804 19.7655 20.804C19.5661 20.804 19.3603 20.7542 19.1715 20.6492C17.4236 19.6692 15.5188 19.0688 13.5058 18.865C11.4885 18.6628 9.49667 18.8675 7.58333 19.4785C6.94485 19.6823 6.25758 19.3295 6.05395 18.69C5.84819 18.0494 6.20243 17.3645 6.84303 17.1595C9.07455 16.4466 11.4015 16.2042 13.7518 16.443C16.0979 16.6818 18.3209 17.3819 20.3615 18.5256C20.9491 18.8527 21.1591 19.5947 20.8303 20.1819ZM22.5061 15.9295C22.2897 16.3458 21.8655 16.5847 21.4264 16.5847C21.2355 16.5847 21.0445 16.541 20.8642 16.4466C18.7155 15.3275 16.3948 14.6345 13.9618 14.3875C11.5097 14.1366 9.08091 14.3553 6.7391 15.0307C6.09213 15.2144 5.41759 14.8445 5.23304 14.1977C5.04637 13.552 5.41969 12.8775 6.06454 12.691C8.70757 11.9288 11.4482 11.6847 14.2079 11.9647C16.9485 12.2438 19.5661 13.0245 21.9906 14.2878C22.5846 14.5986 22.8179 15.3334 22.5061 15.9295ZM23.1127 12.3917C22.9303 12.3917 22.7458 12.3505 22.5697 12.264C20.02 10.9925 17.2773 10.2007 14.4157 9.9103C11.55 9.61715 8.69909 9.8437 5.93939 10.5806C5.2903 10.7528 4.62424 10.3678 4.4503 9.7177C4.27636 9.06839 4.66243 8.40085 5.31365 8.22755C8.35759 7.4147 11.5055 7.16715 14.6639 7.4883C17.8182 7.80755 20.843 8.6817 23.6558 10.0845C24.2582 10.3844 24.5021 11.116 24.203 11.7172C23.9909 12.145 23.5603 12.3917 23.1127 12.3917Z" fill="#1ED760"/>
</svg>