<svg width="28" height="20" viewBox="0 0 28 20" fill="none" xmlns="http://www.w3.org/2000/svg">
<path d="M27.4233 3.46673C27.1004 2.26767 26.1547 1.32226 24.9554 0.999432C22.7643 0.399902 13.9999 0.399902 13.9999 0.399902C13.9999 0.399902 5.23556 0.399902 3.04447 0.976373C1.8682 1.2992 0.899502 2.26767 0.576604 3.46673C0 5.65731 0 10.1999 0 10.1999C0 10.1999 0 14.7655 0.576604 16.9331C0.899502 18.1321 1.84513 19.0776 3.04447 19.4004C5.25863 19.9999 13.9999 19.9999 13.9999 19.9999C13.9999 19.9999 22.7643 19.9999 24.9554 19.4234C26.1547 19.1006 27.1004 18.1552 27.4233 16.9561C27.9999 14.7656 27.9999 10.223 27.9999 10.223C27.9999 10.223 28.0229 5.65731 27.4233 3.46673Z" fill="#FF0000"/>
<path d="M11.1992 14.4L18.1992 10.2L11.1992 6V14.4Z" fill="#F9F6F5"/>
</svg>